<svg xmlns="http://www.w3.org/2000/svg" xmlns:xlink="http://www.w3.org/1999/xlink" width="1920" zoomAndPan="magnify" viewBox="0 0 1440 809.999993" height="1080" preserveAspectRatio="xMidYMid meet" version="1.0"><defs><clipPath id="a4effc59c4"><path d="M 0 0 L 189 0 L 189 273 L 0 273 Z M 0 0 " clip-rule="nonzero"/></clipPath><clipPath id="5a17cfff78"><path d="M 271.78125 -183.546875 L 95.578125 347.484375 L -430.46875 172.933594 L -254.265625 -358.097656 Z M 271.78125 -183.546875 " clip-rule="nonzero"/></clipPath><clipPath id="8e007ce598"><path d="M 95.535156 347.617188 L 271.738281 -183.414062 L -254.308594 -357.964844 L -430.511719 173.066406 Z M 95.535156 347.617188 " clip-rule="nonzero"/></clipPath><clipPath id="6301d491d1"><path d="M 1352 288 L 1440 288 L 1440 810 L 1352 810 Z M 1352 288 " clip-rule="nonzero"/></clipPath><clipPath id="c9522ce15b"><path d="M 1222.816406 601.929688 L 1609.625 197.675781 L 2010.082031 580.851562 L 1623.277344 985.105469 Z M 1222.816406 601.929688 " clip-rule="nonzero"/></clipPath><clipPath id="55768d3178"><path d="M 1609.71875 197.574219 L 1222.914062 601.828125 L 1623.375 985.003906 L 2010.179688 580.75 Z M 1609.71875 197.574219 " clip-rule="nonzero"/></clipPath><clipPath id="f87b3adf6f"><path d="M 162.859375 124.472656 L 225.859375 124.472656 L 225.859375 187.472656 L 162.859375 187.472656 Z M 162.859375 124.472656 " clip-rule="nonzero"/></clipPath><clipPath id="8b1c05ca02"><path d="M 1319.667969 458.636719 L 1372.167969 458.636719 L 1372.167969 511.136719 L 1319.667969 511.136719 Z M 1319.667969 458.636719 " clip-rule="nonzero"/></clipPath><clipPath id="09f35d5764"><path d="M 0 596 L 286 596 L 286 810 L 0 810 Z M 0 596 " clip-rule="nonzero"/></clipPath><clipPath id="ec8dc800fc"><path d="M -293.339844 630.246094 L 260.371094 549.972656 L 339.890625 1098.488281 L -213.824219 1178.761719 Z M -293.339844 630.246094 " clip-rule="nonzero"/></clipPath><clipPath id="b04c9b4225"><path d="M 260.511719 549.953125 L -293.199219 630.222656 L -213.683594 1178.742188 L 340.027344 1098.46875 Z M 260.511719 549.953125 " clip-rule="nonzero"/></clipPath><clipPath id="377c50d4da"><path d="M 0 490 L 106 490 L 106 810 L 0 810 Z M 0 490 " clip-rule="nonzero"/></clipPath><clipPath id="7ecfeeb6b7"><path d="M -287.410156 1175.476562 L -537.976562 675.21875 L -42.414062 427.003906 L 208.152344 927.257812 Z M -287.410156 1175.476562 " clip-rule="nonzero"/></clipPath><clipPath id="e2f27fa72d"><path d="M -287.410156 1175.476562 L -537.976562 675.21875 L -42.414062 427.003906 L 208.152344 927.257812 Z M -287.410156 1175.476562 " clip-rule="nonzero"/></clipPath><clipPath id="412ba4bad7"><path d="M 13 515 L 77 515 L 77 579 L 13 579 Z M 13 515 " clip-rule="nonzero"/></clipPath><clipPath id="d9f9791f96"><path d="M 30.839844 589.699219 L 2.625 533.367188 L 58.953125 505.15625 L 87.167969 561.484375 Z M 30.839844 589.699219 " clip-rule="nonzero"/></clipPath><clipPath id="d23fe772e2"><path d="M 1068 0 L 1440 0 L 1440 97 L 1068 97 Z M 1068 0 " clip-rule="nonzero"/></clipPath><clipPath id="2831c92788"><path d="M 1293.199219 210.464844 L 979.625 -252.90625 L 1438.648438 -563.535156 L 1752.222656 -100.167969 Z M 1293.199219 210.464844 " clip-rule="nonzero"/></clipPath><clipPath id="8d4884c8ed"><path d="M 979.546875 -253.023438 L 1293.121094 210.347656 L 1752.144531 -100.285156 L 1438.570312 -563.652344 Z M 979.546875 -253.023438 " clip-rule="nonzero"/></clipPath><clipPath id="5857922026"><path d="M 1311 0 L 1440 0 L 1440 289 L 1311 289 Z M 1311 0 " clip-rule="nonzero"/></clipPath><clipPath id="6c1046f7d9"><path d="M 1230.371094 237.421875 L 1348.382812 -309.492188 L 1890.160156 -192.589844 L 1772.152344 354.324219 Z M 1230.371094 237.421875 " clip-rule="nonzero"/></clipPath><clipPath id="ba44eb3ccb"><path d="M 1890.476562 -192.664062 L 1772.46875 354.25 L 1230.6875 237.347656 L 1348.695312 -309.566406 Z M 1890.476562 -192.664062 " clip-rule="nonzero"/></clipPath><clipPath id="604c13b330"><path d="M 1178 39 L 1232 39 L 1232 92 L 1178 92 Z M 1178 39 " clip-rule="nonzero"/></clipPath><clipPath id="8b38aa887b"><path d="M 1173.554688 85.5625 L 1184.628906 34.246094 L 1235.945312 45.316406 L 1224.875 96.636719 Z M 1173.554688 85.5625 " clip-rule="nonzero"/></clipPath></defs><rect x="-144" width="1728" fill="#ffffff" y="-80.999999" height="971.999992" fill-opacity="1"/><rect x="-144" width="1728" fill="#ffffff" y="-80.999999" height="971.999992" fill-opacity="1"/><rect x="-144" width="1728" fill="#ffffff" y="-80.999999" height="971.999992" fill-opacity="1"/><g clip-path="url(#a4effc59c4)"><g clip-path="url(#5a17cfff78)"><g clip-path="url(#8e007ce598)"><path fill="#760a21" d="M 36.132812 272.382812 C 77.046875 265.605469 93.144531 223.902344 101.683594 187.269531 C 111.199219 146.324219 128.582031 129.363281 159.15625 102.304688 C 183.964844 80.34375 191.804688 55.015625 186.601562 21.285156 C 180.238281 -19.5 145.792969 -23.011719 134.789062 -57.988281 C 124.535156 -90.453125 146.101562 -127.171875 137.8125 -160.792969 C 129.457031 -194.550781 101.507812 -212.191406 69.535156 -221.105469 C 25.949219 -233.195312 -21.507812 -224.402344 -62.390625 -246.675781 C -95.328125 -264.613281 -119.144531 -313.113281 -162.160156 -307.144531 C -242.632812 -295.964844 -220.042969 -170.183594 -248.308594 -118.726562 C -278.980469 -63.089844 -374.476562 4.960938 -335.050781 81.367188 C -317.667969 115.179688 -272.101562 115.148438 -240.800781 126.097656 C -197.246094 141.34375 -188.976562 160.710938 -170.601562 200.730469 C -152.976562 239.261719 -147.070312 267.117188 -101.769531 269.257812 C -74.621094 270.574219 -57.902344 238.582031 -39.410156 237.703125 C -16.40625 236.855469 12.894531 276.320312 36.132812 272.382812 Z M 36.132812 272.382812 " fill-opacity="1" fill-rule="nonzero"/></g></g></g><path fill="#b81437" d="M -165.671875 -342.347656 C -146.355469 -379.042969 -101.707031 -381.191406 -64.25 -377.757812 C -22.390625 -373.894531 -0.816406 -385.050781 34.492188 -405.546875 C 63.148438 -422.179688 89.660156 -421.640625 120.03125 -406.082031 C 156.738281 -387.199219 149.226562 -353.398438 178.957031 -331.941406 C 206.539062 -311.984375 248.183594 -320.886719 277.484375 -302.433594 C 306.890625 -283.871094 314.832031 -251.789062 313.222656 -218.632812 C 310.96875 -173.460938 287.679688 -131.183594 295.941406 -85.367188 C 302.597656 -48.457031 341.128906 -10.582031 321.917969 28.367188 C 285.960938 101.222656 173.695312 40.167969 115.953125 50.792969 C 53.488281 62.378906 -41.171875 131.585938 -101.277344 70.105469 C -127.894531 42.960938 -113.511719 -0.28125 -114.050781 -33.4375 C -114.800781 -79.574219 -130.578125 -93.523438 -162.777344 -123.566406 C -193.792969 -152.429688 -218.371094 -166.808594 -206.136719 -210.480469 C -198.839844 -236.660156 -163.207031 -242.453125 -156.550781 -259.726562 C -148.5 -281.296875 -176.726562 -321.53125 -165.671875 -342.347656 Z M -165.671875 -342.347656 " fill-opacity="1" fill-rule="nonzero"/><g clip-path="url(#6301d491d1)"><g clip-path="url(#c9522ce15b)"><g clip-path="url(#55768d3178)"><path fill="#760a21" d="M 1631.140625 291.007812 C 1591.273438 279.597656 1558.855469 310.371094 1535.4375 339.808594 C 1509.292969 372.722656 1486.316406 380.597656 1447.097656 391.941406 C 1415.269531 401.148438 1397.328125 420.671875 1387.570312 453.375 C 1375.839844 492.953125 1405.453125 510.890625 1400.40625 547.207031 C 1395.753906 580.933594 1360.53125 604.867188 1353.609375 638.796875 C 1346.691406 672.875 1364.378906 700.792969 1389.449219 722.554688 C 1423.644531 752.152344 1470.292969 764.554688 1497.679688 802.199219 C 1519.75 832.523438 1520.476562 886.550781 1561.902344 899.597656 C 1639.398438 923.984375 1672.902344 800.664062 1720.496094 766.285156 C 1772.050781 729.164062 1887.5 708.613281 1884.632812 622.683594 C 1883.417969 584.683594 1842.234375 565.179688 1818.648438 541.871094 C 1785.832031 509.429688 1786.660156 488.386719 1787.214844 444.355469 C 1787.804688 401.988281 1794.40625 374.289062 1754.394531 352.9375 C 1730.433594 340.113281 1701.613281 361.851562 1684.53125 354.71875 C 1663.382812 345.625 1653.824219 297.410156 1631.140625 291.007812 Z M 1631.140625 291.007812 " fill-opacity="1" fill-rule="nonzero"/></g></g></g><path fill="#b81437" d="M 1690.15625 1020.671875 C 1670.839844 1057.367188 1626.191406 1059.511719 1588.730469 1056.078125 C 1546.875 1052.214844 1525.300781 1063.375 1489.992188 1083.871094 C 1461.335938 1100.5 1434.824219 1099.964844 1404.449219 1084.40625 C 1367.746094 1065.519531 1375.257812 1031.722656 1345.527344 1010.261719 C 1317.945312 990.304688 1276.300781 999.210938 1247 980.757812 C 1217.59375 962.195312 1209.648438 930.109375 1211.261719 896.957031 C 1213.515625 851.785156 1236.804688 809.507812 1228.539062 763.691406 C 1221.886719 726.78125 1183.355469 688.90625 1202.566406 649.957031 C 1238.519531 577.101562 1350.785156 638.152344 1408.527344 627.53125 C 1470.992188 615.941406 1565.65625 546.734375 1625.761719 608.21875 C 1652.378906 635.363281 1637.996094 678.605469 1638.53125 711.757812 C 1639.285156 757.898438 1655.0625 771.847656 1687.257812 801.890625 C 1718.277344 830.753906 1742.855469 845.132812 1730.621094 888.800781 C 1723.320312 914.980469 1687.6875 920.777344 1681.035156 938.050781 C 1672.984375 959.617188 1701.210938 999.855469 1690.15625 1020.671875 Z M 1690.15625 1020.671875 " fill-opacity="1" fill-rule="nonzero"/><g clip-path="url(#f87b3adf6f)"><path fill="#b81437" d="M 194.359375 124.472656 C 176.960938 124.472656 162.859375 138.574219 162.859375 155.972656 C 162.859375 173.367188 176.960938 187.472656 194.359375 187.472656 C 211.753906 187.472656 225.859375 173.367188 225.859375 155.972656 C 225.859375 138.574219 211.753906 124.472656 194.359375 124.472656 " fill-opacity="1" fill-rule="nonzero"/></g><g clip-path="url(#8b1c05ca02)"><path fill="#b81437" d="M 1345.917969 458.636719 C 1331.417969 458.636719 1319.667969 470.390625 1319.667969 484.886719 C 1319.667969 499.382812 1331.417969 511.136719 1345.917969 511.136719 C 1360.414062 511.136719 1372.167969 499.382812 1372.167969 484.886719 C 1372.167969 470.390625 1360.414062 458.636719 1345.917969 458.636719 " fill-opacity="1" fill-rule="nonzero"/></g><g clip-path="url(#09f35d5764)"><g clip-path="url(#ec8dc800fc)"><g clip-path="url(#b04c9b4225)"><path fill="#760a21" d="M 219.847656 636.757812 C 195.460938 603.214844 150.96875 607.496094 114.390625 616.265625 C 73.519531 626.09375 50.570312 618.144531 12.683594 602.929688 C -18.0625 590.582031 -44.222656 594.917969 -72.050781 614.671875 C -105.664062 638.628906 -93.382812 671 -119.726562 696.5 C -144.160156 720.210938 -186.648438 717.371094 -213 739.839844 C -239.441406 762.429688 -242.699219 795.316406 -236.347656 827.898438 C -227.636719 872.28125 -198.519531 910.777344 -200.128906 957.304688 C -201.417969 994.789062 -234.113281 1037.800781 -209.515625 1073.589844 C -163.480469 1140.535156 -61.132812 1064.007812 -2.464844 1066.234375 C 61.015625 1068.742188 164.628906 1123.652344 215.289062 1054.183594 C 237.738281 1023.5 217.300781 982.769531 213.074219 949.878906 C 207.199219 904.109375 220.8125 888.042969 248.367188 853.691406 C 274.921875 820.675781 297.183594 802.921875 278.808594 761.457031 C 267.832031 736.59375 231.734375 735.972656 222.671875 719.832031 C 211.609375 699.640625 233.773438 655.773438 219.847656 636.757812 Z M 219.847656 636.757812 " fill-opacity="1" fill-rule="nonzero"/></g></g></g><g clip-path="url(#377c50d4da)"><g clip-path="url(#7ecfeeb6b7)"><g clip-path="url(#e2f27fa72d)"><path fill="#b81437" d="M -239.414062 1092.496094 C -280.878906 1091.660156 -302.792969 1052.699219 -316.496094 1017.667969 C -331.789062 978.515625 -351.425781 964.222656 -385.566406 941.828125 C -413.269531 923.65625 -424.660156 899.710938 -424.351562 865.585938 C -423.90625 824.308594 -390.320312 815.890625 -384.449219 779.699219 C -378.957031 746.097656 -405.570312 712.851562 -402.191406 678.390625 C -398.765625 643.78125 -373.636719 622.3125 -343.269531 608.90625 C -301.871094 590.691406 -253.640625 592.582031 -216.378906 564.675781 C -186.355469 542.195312 -169.746094 490.78125 -126.316406 490.515625 C -45.074219 490.035156 -49.386719 617.753906 -14.027344 664.625 C 24.308594 715.285156 128.582031 768.933594 100.527344 850.207031 C 88.175781 886.160156 43.070312 892.667969 13.667969 907.996094 C -27.25 929.332031 -32.65625 949.683594 -45.097656 991.925781 C -57.015625 1032.585938 -58.863281 1061 -103.386719 1069.621094 C -130.066406 1074.820312 -151.203125 1045.554688 -169.628906 1047.339844 C -192.519531 1049.800781 -215.851562 1093.058594 -239.414062 1092.496094 Z M -239.414062 1092.496094 " fill-opacity="1" fill-rule="nonzero"/></g></g></g><g clip-path="url(#412ba4bad7)"><g clip-path="url(#d9f9791f96)"><path fill="#b81437" d="M 16.730469 561.535156 C 24.523438 577.089844 43.449219 583.382812 59.003906 575.589844 C 74.558594 567.800781 80.851562 548.875 73.0625 533.320312 C 65.269531 517.765625 46.34375 511.46875 30.789062 519.261719 C 15.234375 527.054688 8.941406 545.976562 16.730469 561.535156 " fill-opacity="1" fill-rule="nonzero"/></g></g><g clip-path="url(#d23fe772e2)"><g clip-path="url(#2831c92788)"><g clip-path="url(#8d4884c8ed)"><path fill="#760a21" d="M 1075.398438 -254.253906 C 1055.832031 -217.6875 1079.078125 -179.507812 1102.914062 -150.410156 C 1129.574219 -117.910156 1132.421875 -93.789062 1135.242188 -53.058594 C 1137.527344 -20.007812 1152.828125 1.648438 1182.738281 18.082031 C 1218.949219 37.898438 1242.730469 12.734375 1277.164062 25.328125 C 1309.152344 36.988281 1325.117188 76.46875 1356.824219 90.390625 C 1388.675781 104.34375 1419.699219 92.9375 1446.253906 73.023438 C 1482.402344 45.839844 1504.363281 2.859375 1546.9375 -15.976562 C 1581.234375 -31.152344 1634.199219 -20.46875 1655.6875 -58.207031 C 1695.875 -128.816406 1582.394531 -187.578125 1558.828125 -241.351562 C 1533.417969 -299.578125 1537.679688 -416.765625 1453.078125 -432.082031 C 1415.675781 -438.914062 1387.925781 -402.769531 1360.164062 -384.628906 C 1321.535156 -359.394531 1301.140625 -364.644531 1258.210938 -374.472656 C 1216.925781 -383.984375 1191.242188 -396.28125 1161.929688 -361.671875 C 1144.339844 -340.953125 1159.511719 -308.195312 1148.933594 -293.003906 C 1135.582031 -274.25 1086.441406 -275.078125 1075.398438 -254.253906 Z M 1075.398438 -254.253906 " fill-opacity="1" fill-rule="nonzero"/></g></g></g><g clip-path="url(#5857922026)"><g clip-path="url(#6c1046f7d9)"><g clip-path="url(#ba44eb3ccb)"><path fill="#b81437" d="M 1801.09375 -158.039062 C 1832.886719 -131.414062 1825.566406 -87.320312 1814.3125 -51.429688 C 1801.707031 -11.328125 1808.066406 12.113281 1820.648438 50.953125 C 1830.863281 82.472656 1824.746094 108.273438 1803.132812 134.683594 C 1776.929688 166.578125 1745.476562 152.105469 1718.230469 176.640625 C 1692.902344 199.394531 1692.824219 241.980469 1668.605469 266.726562 C 1644.257812 291.558594 1611.222656 292.554688 1579.152344 283.988281 C 1535.46875 272.257812 1499.058594 240.574219 1452.53125 238.988281 C 1415.046875 237.707031 1369.894531 267.382812 1335.875 240.390625 C 1272.242188 189.875 1355.597656 93.015625 1357.394531 34.332031 C 1359.242188 -29.171875 1311.558594 -136.304688 1384.335938 -182.085938 C 1416.484375 -202.378906 1455.71875 -179.203125 1488.242188 -172.734375 C 1533.5 -163.734375 1550.464844 -176.214844 1586.621094 -201.351562 C 1621.378906 -225.585938 1640.617188 -246.578125 1680.722656 -225.40625 C 1704.777344 -212.75 1702.925781 -176.695312 1718.40625 -166.550781 C 1737.792969 -154.132812 1783.078125 -173.238281 1801.09375 -158.039062 Z M 1801.09375 -158.039062 " fill-opacity="1" fill-rule="nonzero"/></g></g></g><g clip-path="url(#604c13b330)"><g clip-path="url(#8b38aa887b)"><path fill="#b81437" d="M 1179.089844 59.90625 C 1176.035156 74.074219 1185.042969 88.042969 1199.214844 91.101562 C 1213.386719 94.160156 1227.351562 85.148438 1230.410156 70.976562 C 1233.46875 56.804688 1224.457031 42.839844 1210.289062 39.78125 C 1196.117188 36.722656 1182.148438 45.734375 1179.089844 59.90625 " fill-opacity="1" fill-rule="nonzero"/></g></g></svg>