<?xml version="1.0" standalone="no"?>
<!DOCTYPE svg PUBLIC "-//W3C//DTD SVG 20010904//EN"
 "http://www.w3.org/TR/2001/REC-SVG-20010904/DTD/svg10.dtd">
<svg version="1.0" xmlns="http://www.w3.org/2000/svg"
 width="942.000000pt" height="120.000000pt" viewBox="0 0 942.000000 120.000000"
 preserveAspectRatio="xMidYMid meet">

<g transform="translate(0.000000,120.000000) scale(0.100000,-0.100000)"
fill="#000000" stroke="none">
<path d="M4780 945 c0 -9 -10 -20 -22 -25 -19 -7 -20 -9 -4 -9 11 -1 16 -6 13
-15 -3 -8 -9 -31 -13 -50 -5 -28 -3 -37 11 -42 10 -4 23 0 33 12 16 17 16 17
-1 5 -24 -19 -30 -9 -22 39 5 29 13 44 28 50 19 7 19 9 4 9 -14 1 -17 6 -12
21 4 11 2 20 -4 20 -6 0 -11 -7 -11 -15z"/>
<path d="M4850 871 c-25 -47 -4 -111 36 -111 26 0 44 30 44 75 0 48 -59 74
-80 36z m55 -46 c0 -43 -3 -50 -20 -50 -16 0 -21 8 -23 39 -4 49 3 68 25 64
14 -3 18 -14 18 -53z"/>
<path d="M8961 807 c-20 -25 -41 -86 -41 -122 0 -38 21 -98 39 -109 5 -4 4 6
-4 21 -22 42 -19 151 5 191 20 33 21 42 1 19z"/>
<path d="M9160 809 c0 -4 7 -20 15 -35 21 -42 19 -132 -5 -179 -19 -39 -19
-40 0 -17 44 53 49 148 10 208 -11 16 -20 26 -20 23z"/>
<path d="M9025 780 c-18 -20 -14 -57 5 -45 8 5 8 11 0 20 -13 16 11 38 37 33
30 -5 29 -63 -2 -106 -27 -37 -27 -37 14 5 46 47 50 64 21 93 -25 25 -52 25
-75 0z"/>
<path d="M3895 760 c-3 -11 -14 -20 -23 -20 -13 0 -14 -2 -4 -9 10 -6 12 -21
7 -54 -6 -38 -4 -48 9 -53 18 -7 46 12 46 30 0 6 -5 3 -11 -6 -12 -22 -44 -24
-36 -4 3 8 9 31 13 50 5 27 11 36 28 37 18 1 18 2 3 6 -13 3 -17 11 -14 24 7
25 -10 25 -18 -1z"/>
<path d="M4083 713 c26 -2 67 -2 90 0 23 2 2 3 -48 3 -49 0 -68 -1 -42 -3z"/>
<path d="M4583 683 c141 -2 373 -2 515 0 141 1 25 2 -258 2 -283 0 -399 -1
-257 -2z"/>
<path d="M4083 663 c26 -2 67 -2 90 0 23 2 2 3 -48 3 -49 0 -68 -1 -42 -3z"/>
<path d="M4530 438 c-35 -112 -67 -209 -70 -216 -4 -8 -17 23 -30 70 -31 112
-33 115 -53 84 -12 -18 -13 -24 -4 -20 10 3 21 -24 41 -96 16 -55 31 -100 35
-100 3 0 39 106 80 235 l74 235 376 3 376 2 -381 3 -380 2 -64 -202z"/>
<path d="M9015 630 c-4 -6 13 -10 44 -10 28 0 51 5 51 10 0 6 -20 10 -44 10
-25 0 -48 -4 -51 -10z"/>
<path d="M5225 579 c-4 -6 -4 -13 0 -17 4 -4 10 -1 12 6 3 6 11 12 19 12 24 0
15 -37 -13 -59 l-28 -20 38 -1 c29 0 37 4 36 18 0 10 -3 12 -6 5 -2 -7 -12
-13 -21 -13 -12 0 -11 5 8 24 13 15 20 32 17 40 -7 18 -52 22 -62 5z"/>
<path d="M5114 508 c-5 -7 -3 -8 6 -3 9 6 11 0 5 -24 -5 -24 -3 -32 11 -38 19
-7 46 7 51 28 3 8 0 7 -7 -3 -6 -10 -18 -18 -27 -18 -12 0 -14 7 -9 35 5 27 4
35 -8 35 -8 0 -18 -5 -22 -12z"/>
<path d="M5180 511 c0 -6 5 -13 10 -16 6 -3 10 1 10 9 0 9 -4 16 -10 16 -5 0
-10 -4 -10 -9z"/>
<path d="M4668 454 c-5 -4 -8 -42 -8 -85 0 -65 -3 -78 -17 -82 -10 -3 2 -5 27
-5 25 0 37 2 28 5 -14 4 -18 19 -20 90 -2 46 -6 81 -10 77z"/>
<path d="M5227 442 c8 -5 8 -16 -2 -45 -11 -31 -10 -37 1 -37 8 0 14 6 14 14
0 8 11 17 25 20 18 5 25 13 25 31 0 22 -4 25 -37 25 -21 0 -33 -4 -26 -8z m53
-17 c0 -15 -26 -32 -36 -23 -2 3 -2 13 2 22 8 20 34 21 34 1z"/>
<path d="M4858 343 c23 -2 61 -2 85 0 23 2 4 4 -43 4 -47 0 -66 -2 -42 -4z"/>
<path d="M5148 343 c34 -2 88 -2 120 0 31 2 3 3 -63 3 -66 0 -92 -1 -57 -3z"/>
<path d="M5215 319 c-4 -6 -4 -13 0 -17 4 -4 10 -1 12 6 3 6 11 12 19 12 24 0
15 -37 -13 -59 l-28 -20 38 -1 c29 0 37 4 36 18 0 10 -3 12 -6 5 -2 -7 -12
-13 -21 -13 -12 0 -11 5 8 24 13 15 20 32 17 40 -7 18 -52 22 -62 5z"/>
<path d="M5135 254 c-37 -37 6 -82 52 -55 14 8 12 9 -13 5 -36 -7 -45 2 -33
34 8 22 39 31 39 11 0 -5 5 -7 10 -4 6 4 8 11 5 16 -9 14 -42 11 -60 -7z"/>
</g>
</svg>
