<?xml version="1.0" standalone="no"?>
<!DOCTYPE svg PUBLIC "-//W3C//DTD SVG 20010904//EN"
 "http://www.w3.org/TR/2001/REC-SVG-20010904/DTD/svg10.dtd">
<svg version="1.0" xmlns="http://www.w3.org/2000/svg"
 width="934.000000pt" height="118.000000pt" viewBox="0 0 934.000000 118.000000"
 preserveAspectRatio="xMidYMid meet">

<g transform="translate(0.000000,118.000000) scale(0.100000,-0.100000)"
fill="#000000" stroke="none">
<path d="M4362 928 c-15 -15 -16 -38 -2 -38 6 0 10 8 8 18 -2 11 3 17 17 17
34 0 31 -43 -6 -81 l-33 -34 42 0 c29 0 42 4 42 14 0 9 -9 12 -27 9 l-28 -5
28 26 c39 38 32 86 -13 86 -9 0 -21 -5 -28 -12z"/>
<path d="M3123 880 c-36 -21 -63 -66 -63 -104 0 -31 43 -66 79 -65 l26 2 -25
4 c-38 7 -50 22 -50 62 0 48 32 99 67 107 45 9 50 12 23 13 -14 1 -39 -8 -57
-19z"/>
<path d="M3235 891 c-3 -6 -10 -9 -15 -6 -5 3 -4 -9 2 -27 l12 -33 8 34 c9 34
5 51 -7 32z"/>
<path d="M6888 884 c-5 -4 -8 -42 -8 -85 0 -65 -3 -78 -17 -82 -10 -3 2 -5 27
-5 25 0 37 2 28 5 -14 4 -18 19 -20 90 -2 46 -6 81 -10 77z"/>
<path d="M3295 798 c0 -18 -4 -45 -8 -60 -4 -16 -3 -28 2 -28 5 0 14 20 20 44
6 24 17 49 26 56 18 15 49 5 42 -14 -13 -34 -19 -89 -10 -83 6 4 14 24 18 44
4 21 12 44 18 51 6 7 6 12 1 11 -5 -1 -17 1 -28 6 -11 5 -26 4 -37 -3 -11 -7
-20 -8 -24 -2 -12 19 -20 10 -20 -22z"/>
<path d="M3434 823 c15 -4 17 -11 11 -36 -12 -52 -11 -70 4 -75 8 -3 11 0 7 7
-4 6 -2 27 3 48 11 40 1 64 -28 62 -12 -1 -12 -2 3 -6z"/>
<path d="M4236 824 c8 -3 8 -16 1 -43 -6 -21 -7 -45 -4 -54 8 -22 41 -22 58 0
13 15 12 15 -8 2 -32 -20 -47 -2 -32 39 12 36 6 62 -13 61 -8 0 -9 -2 -2 -5z"/>
<path d="M4306 803 c10 -40 14 -41 14 -5 0 18 -5 32 -10 32 -6 0 -8 -11 -4
-27z"/>
<path d="M2596 768 c5 -7 35 -49 67 -93 33 -44 62 -86 64 -93 3 -7 -19 -40
-49 -75 -93 -109 -103 -97 81 -97 l162 0 15 35 c17 42 18 56 0 33 -26 -34 -81
-48 -191 -48 -58 0 -105 3 -105 6 0 3 29 39 65 80 39 45 63 80 58 87 -4 7 -31
44 -60 83 -29 39 -53 74 -53 77 0 11 141 8 201 -3 30 -6 63 -20 77 -33 l24
-22 -14 35 -14 35 -168 3 c-134 2 -166 0 -160 -10z"/>
<path d="M3183 773 c16 -4 17 -7 4 -27 -13 -20 -13 -22 4 -23 10 -1 19 4 19
12 0 7 7 21 16 29 14 15 12 16 -23 15 -21 -1 -30 -3 -20 -6z"/>
<path d="M3560 595 c0 -134 0 -135 23 -134 16 1 18 2 5 6 -16 4 -18 19 -18
128 0 109 2 124 18 128 13 4 11 5 -5 6 -23 1 -23 0 -23 -134z"/>
<path d="M5160 595 c0 -134 0 -135 23 -134 16 1 18 2 5 6 -16 4 -18 19 -18
128 0 109 2 124 18 128 13 4 11 5 -5 6 -23 1 -23 0 -23 -134z"/>
<path d="M5903 723 c15 -4 17 -19 17 -128 0 -109 -2 -124 -17 -128 -14 -4 -12
-5 5 -6 22 -1 22 0 22 134 0 134 0 135 -22 134 -17 -1 -19 -2 -5 -6z"/>
<path d="M6701 717 c-20 -25 -41 -86 -41 -122 0 -38 21 -98 39 -109 5 -4 4 6
-4 21 -22 42 -19 151 5 191 20 33 21 42 1 19z"/>
<path d="M8961 717 c-20 -25 -41 -86 -41 -122 0 -38 21 -98 39 -109 5 -4 4 6
-4 21 -22 42 -19 151 5 191 20 33 21 42 1 19z"/>
<path d="M2214 713 c5 -10 -6 -13 -46 -15 l-53 -2 48 -3 c33 -3 45 -8 40 -16
-4 -7 2 -5 13 3 10 8 20 15 22 16 1 1 -5 7 -15 15 -11 9 -14 10 -9 2z"/>
<path d="M3650 688 c-34 -55 -20 -188 22 -214 5 -4 2 9 -8 27 -25 46 -26 155
-1 192 9 15 15 27 12 27 -3 0 -14 -15 -25 -32z"/>
<path d="M4520 719 c0 -4 7 -20 15 -35 21 -42 19 -132 -5 -179 -19 -39 -19
-40 0 -17 44 53 49 148 10 208 -11 16 -20 26 -20 23z"/>
<path d="M4662 708 c-8 -10 -5 -13 13 -13 18 0 21 3 13 13 -6 6 -12 12 -13 12
-1 0 -7 -6 -13 -12z"/>
<path d="M5272 708 c-8 -10 -5 -13 13 -13 18 0 21 3 13 13 -6 6 -12 12 -13 12
-1 0 -7 -6 -13 -12z"/>
<path d="M5874 713 c5 -10 -6 -13 -46 -15 l-53 -2 48 -3 c33 -3 45 -8 40 -16
-4 -7 2 -5 13 3 10 8 20 15 22 16 1 1 -5 7 -15 15 -11 9 -14 10 -9 2z"/>
<path d="M6084 713 c5 -10 -6 -13 -46 -15 l-53 -2 48 -3 c33 -3 45 -8 40 -16
-4 -7 2 -5 13 3 10 8 20 15 22 16 1 1 -5 7 -15 15 -11 9 -14 10 -9 2z"/>
<path d="M6553 713 c54 -8 60 -84 11 -143 -36 -42 -13 -38 25 5 54 62 32 147
-36 144 l-28 -2 28 -4z"/>
<path d="M7070 719 c0 -4 7 -20 15 -35 21 -42 19 -132 -5 -179 -19 -39 -19
-40 0 -17 44 53 49 148 10 208 -11 16 -20 26 -20 23z"/>
<path d="M9160 719 c0 -4 7 -20 15 -35 21 -42 19 -132 -5 -179 -19 -39 -19
-40 0 -17 44 53 49 148 10 208 -11 16 -20 26 -20 23z"/>
<path d="M3768 704 c-5 -4 -8 -42 -8 -85 0 -65 -3 -78 -17 -82 -10 -3 2 -5 27
-5 25 0 37 2 28 5 -14 4 -18 19 -20 90 -2 46 -6 81 -10 77z"/>
<path d="M5686 686 c-10 -16 -13 -25 -7 -22 7 5 11 -8 11 -40 l0 -46 -35 4
c-19 2 -35 0 -35 -4 0 -4 16 -8 35 -8 37 0 50 -25 18 -33 -10 -3 0 -5 22 -5
22 0 34 2 28 5 -7 2 -13 11 -13 19 0 8 6 14 13 14 9 0 9 2 0 8 -7 4 -13 36
-15 72 l-3 64 -19 -28z"/>
<path d="M6471 675 c-41 -47 -44 -106 -7 -131 14 -8 35 -14 48 -11 21 4 20 4
-4 6 -55 2 -61 82 -12 141 36 42 13 38 -25 -5z"/>
<path d="M9055 703 c11 -3 24 -9 29 -13 14 -14 -3 -60 -22 -61 -12 0 -11 -3 6
-10 34 -13 28 -70 -8 -80 l-25 -7 27 -1 c29 -1 58 22 58 45 0 8 -9 23 -19 33
-17 17 -18 21 -5 32 31 26 9 70 -35 68 -21 -1 -22 -2 -6 -6z"/>
<path d="M9020 676 c0 -9 5 -16 10 -16 6 0 10 4 10 9 0 6 -4 13 -10 16 -5 3
-10 -1 -10 -9z"/>
<path d="M4002 643 l-2 -42 -47 -4 -48 -3 47 -2 47 -2 4 -42 4 -43 1 42 c2 42
2 42 45 46 l42 4 -42 1 c-42 2 -42 2 -46 45 l-4 42 -1 -42z"/>
<path d="M4962 643 c-2 -42 -2 -42 -44 -46 l-43 -4 42 -1 c42 -2 42 -2 46 -44
l4 -43 1 42 c2 42 2 42 45 46 l42 4 -42 1 c-42 2 -42 2 -46 45 l-4 42 -1 -42z"/>
<path d="M6262 643 l-2 -42 -47 -4 -48 -3 47 -2 47 -2 4 -42 4 -43 1 42 c2 42
2 42 45 46 l42 4 -42 1 c-42 2 -42 2 -46 45 l-4 42 -1 -42z"/>
<path d="M2121 624 c-12 -15 -21 -37 -21 -49 0 -26 23 -49 42 -42 8 4 7 6 -4
6 -36 2 -12 101 24 101 19 0 23 -28 9 -65 -5 -11 -4 -25 1 -32 15 -19 27 -16
21 6 -2 10 0 34 5 54 9 32 8 36 -12 41 -35 10 -44 7 -65 -20z"/>
<path d="M4615 640 c-4 -6 1 -7 11 -3 14 5 16 3 11 -11 -11 -28 -20 -96 -13
-96 3 0 11 20 17 45 13 52 36 77 49 55 5 -8 12 -11 16 -7 4 4 2 13 -4 19 -10
10 -17 10 -32 0 -12 -7 -21 -8 -25 -2 -8 13 -22 13 -30 0z"/>
<path d="M5225 639 c-4 -6 -4 -13 -1 -16 3 -4 6 -1 6 5 0 7 5 12 11 12 7 0 9
-10 5 -26 -25 -96 -14 -112 15 -24 14 42 14 50 2 55 -21 8 -31 6 -38 -6z"/>
<path d="M5296 635 c4 -8 10 -15 15 -15 5 0 9 7 9 15 0 8 -7 15 -15 15 -9 0
-12 -6 -9 -15z"/>
<path d="M5765 641 c-3 -7 0 -8 9 -5 19 7 19 1 6 -45 -11 -38 1 -62 29 -60 12
1 12 2 -3 6 -15 4 -17 11 -11 36 12 54 11 71 -7 75 -9 2 -19 -2 -23 -7z"/>
<path d="M5850 636 c0 -8 5 -18 10 -21 6 -3 10 1 10 9 0 8 -4 18 -10 21 -5 3
-10 -1 -10 -9z"/>
<path d="M5996 644 c8 -3 8 -16 1 -43 -6 -21 -7 -45 -4 -54 8 -22 41 -22 58 0
13 15 12 15 -8 2 -32 -20 -47 -2 -32 39 12 36 6 62 -13 61 -8 0 -9 -2 -2 -5z"/>
<path d="M6066 623 c10 -40 14 -41 14 -5 0 18 -5 32 -10 32 -6 0 -8 -11 -4
-27z"/>
<path d="M2363 623 c26 -2 68 -2 95 0 26 2 4 3 -48 3 -52 0 -74 -1 -47 -3z"/>
<path d="M5370 610 c0 -5 5 -10 11 -10 5 0 7 5 4 10 -3 6 -8 10 -11 10 -2 0
-4 -4 -4 -10z"/>
<path d="M5500 595 c0 -9 5 -15 11 -13 6 2 11 8 11 13 0 5 -5 11 -11 13 -6 2
-11 -4 -11 -13z"/>
<path d="M3153 593 c64 -2 170 -2 235 0 64 1 11 3 -118 3 -129 0 -182 -2 -117
-3z"/>
<path d="M4252 593 c37 -2 100 -2 140 0 40 1 10 3 -67 3 -77 0 -110 -1 -73 -3z"/>
<path d="M6828 593 c34 -2 90 -2 125 0 34 2 6 3 -63 3 -69 0 -97 -1 -62 -3z"/>
<path d="M2363 573 c26 -2 68 -2 95 0 26 2 4 3 -48 3 -52 0 -74 -1 -47 -3z"/>
<path d="M9010 566 c0 -22 17 -28 24 -10 9 22 8 24 -9 24 -8 0 -15 -6 -15 -14z"/>
<path d="M3302 558 c-15 -15 -16 -38 -2 -38 6 0 10 8 8 18 -2 11 3 17 17 17
34 0 31 -43 -6 -81 l-33 -34 42 0 c29 0 42 4 42 14 0 9 -9 12 -27 9 l-28 -5
28 26 c39 38 32 86 -13 86 -9 0 -21 -5 -28 -12z"/>
<path d="M4729 553 c-13 -17 -13 -17 5 -3 18 14 19 13 14 -5 -3 -11 -7 -26 -9
-34 -2 -9 5 -16 16 -18 15 -3 16 -2 6 5 -10 7 -11 14 -2 31 20 37 -5 56 -30
24z"/>
<path d="M5345 560 c-4 -6 1 -7 11 -3 14 5 15 3 5 -15 -16 -31 -14 -54 6 -50
9 2 18 9 19 16 1 7 0 8 -3 2 -11 -22 -22 -9 -13 16 6 14 10 30 10 35 0 12 -27
12 -35 -1z"/>
<path d="M4352 538 c-15 -15 -16 -38 -2 -38 6 0 10 8 8 18 -2 11 3 17 17 17
34 0 31 -43 -6 -81 l-33 -34 42 0 c29 0 42 4 42 14 0 9 -9 12 -27 9 l-28 -5
28 26 c39 38 32 86 -13 86 -9 0 -21 -5 -28 -12z"/>
<path d="M6932 512 c-20 -31 -20 -33 -3 -13 l21 23 0 -32 c0 -29 -2 -32 -25
-28 -14 3 -28 1 -31 -3 -3 -5 9 -9 25 -9 31 0 42 -14 19 -23 -7 -3 -1 -6 13
-6 21 -1 25 3 23 22 -1 12 -3 41 -3 65 -1 23 -4 42 -8 42 -5 0 -18 -17 -31
-38z"/>
<path d="M3165 459 c-4 -6 -4 -13 -1 -16 3 -4 6 -1 6 5 0 7 5 12 11 12 7 0 9
-10 5 -26 -25 -96 -14 -112 15 -24 14 42 14 50 2 55 -21 8 -31 6 -38 -6z"/>
<path d="M3236 455 c4 -8 10 -15 15 -15 5 0 9 7 9 15 0 8 -7 15 -15 15 -9 0
-12 -6 -9 -15z"/>
<path d="M4246 440 c-14 -17 -26 -38 -26 -45 0 -21 29 -45 53 -44 21 2 21 2
-1 6 -31 6 -36 24 -18 67 10 24 21 36 35 36 14 0 19 -5 15 -15 -4 -8 -1 -15 6
-15 20 0 6 35 -16 38 -14 2 -31 -8 -48 -28z"/>
<path d="M6806 440 c-14 -17 -26 -38 -26 -45 0 -21 29 -45 53 -44 21 2 21 2
-1 6 -31 6 -36 24 -18 67 10 24 21 36 35 36 14 0 19 -5 15 -15 -4 -8 -1 -15 6
-15 20 0 6 35 -16 38 -14 2 -31 -8 -48 -28z"/>
<path d="M3310 390 c0 -5 5 -10 11 -10 5 0 7 5 4 10 -3 6 -8 10 -11 10 -2 0
-4 -4 -4 -10z"/>
<path d="M3285 340 c-4 -6 1 -7 11 -3 14 5 15 3 5 -15 -16 -31 -14 -54 6 -50
9 2 18 9 19 16 1 7 0 8 -3 2 -11 -22 -22 -9 -13 16 6 14 10 30 10 35 0 12 -27
12 -35 -1z"/>
<path d="M2785 330 c-3 -5 -1 -10 4 -10 6 0 11 5 11 10 0 6 -2 10 -4 10 -3 0
-8 -4 -11 -10z"/>
<path d="M2757 283 c-4 -3 -7 -11 -7 -17 0 -6 4 -4 10 4 14 22 23 5 10 -20
-17 -32 4 -51 28 -25 16 18 16 18 -1 5 -17 -13 -18 -11 -12 23 6 29 4 37 -7
37 -8 0 -18 -3 -21 -7z"/>
</g>
</svg>
