<?xml version="1.0" standalone="no"?>
<!DOCTYPE svg PUBLIC "-//W3C//DTD SVG 20010904//EN"
 "http://www.w3.org/TR/2001/REC-SVG-20010904/DTD/svg10.dtd">
<svg version="1.0" xmlns="http://www.w3.org/2000/svg"
 width="938.000000pt" height="120.000000pt" viewBox="0 0 938.000000 120.000000"
 preserveAspectRatio="xMidYMid meet">

<g transform="translate(0.000000,120.000000) scale(0.100000,-0.100000)"
fill="#000000" stroke="none">
<path d="M4780 885 c0 -9 -10 -20 -22 -25 -19 -7 -20 -9 -4 -9 11 -1 16 -6 13
-15 -3 -8 -9 -31 -13 -50 -5 -28 -3 -37 11 -42 10 -4 23 0 33 12 16 17 16 17
-1 5 -24 -19 -30 -9 -22 39 5 29 13 44 28 50 19 7 19 9 4 9 -14 1 -17 6 -12
21 4 11 2 20 -4 20 -6 0 -11 -7 -11 -15z"/>
<path d="M4850 811 c-25 -47 -4 -111 36 -111 26 0 44 30 44 75 0 48 -59 74
-80 36z m55 -46 c0 -43 -3 -50 -20 -50 -16 0 -21 8 -23 39 -4 49 3 68 25 64
14 -3 18 -14 18 -53z"/>
<path d="M8961 747 c-20 -25 -41 -86 -41 -122 0 -38 21 -98 39 -109 5 -4 4 6
-4 21 -22 42 -19 151 5 191 20 33 21 42 1 19z"/>
<path d="M9160 749 c0 -4 7 -20 15 -35 21 -42 19 -132 -5 -179 -19 -39 -19
-40 0 -17 44 53 49 148 10 208 -11 16 -20 26 -20 23z"/>
<path d="M9064 703 c-15 -24 -15 -26 -1 -14 15 12 17 9 17 -32 0 -46 0 -46
-37 -50 l-38 -4 38 -1 c40 -2 48 -15 20 -31 -14 -8 -10 -10 22 -10 22 0 34 3
28 6 -7 2 -13 11 -13 18 0 7 6 16 13 18 10 4 10 6 0 6 -9 1 -13 20 -13 61 0
66 -9 74 -36 33z"/>
<path d="M3755 700 c-3 -11 -14 -20 -23 -20 -13 0 -14 -2 -4 -9 10 -6 12 -21
7 -54 -6 -38 -4 -48 9 -53 18 -7 46 12 46 30 0 6 -5 3 -11 -6 -12 -22 -44 -24
-36 -4 3 8 9 31 13 50 5 27 11 36 28 37 18 1 18 2 3 6 -13 3 -17 11 -14 24 7
25 -10 25 -18 -1z"/>
<path d="M3943 653 c26 -2 67 -2 90 0 23 2 2 3 -48 3 -49 0 -68 -1 -42 -3z"/>
<path d="M4513 623 c180 -2 474 -2 655 0 180 1 32 2 -328 2 -360 0 -508 -1
-327 -2z"/>
<path d="M3943 603 c26 -2 67 -2 90 0 23 2 2 3 -48 3 -49 0 -68 -1 -42 -3z"/>
<path d="M4390 368 c-35 -112 -67 -209 -70 -216 -4 -8 -17 23 -30 70 -31 112
-33 115 -53 84 -12 -18 -13 -24 -4 -20 10 3 21 -24 41 -96 16 -55 31 -100 35
-100 3 0 39 106 80 235 l74 235 516 3 516 2 -521 3 -520 2 -64 -202z"/>
<path d="M4982 478 c-15 -15 -16 -38 -2 -38 6 0 10 8 8 18 -2 11 3 17 17 17
34 0 31 -43 -6 -81 l-33 -34 42 0 c29 0 42 4 42 14 0 9 -9 12 -27 9 l-28 -5
28 26 c39 38 32 86 -13 86 -9 0 -21 -5 -28 -12z"/>
<path d="M5125 478 c-48 -26 -62 -88 -25 -108 34 -18 87 -9 99 17 10 21 8 23
-17 23 -21 0 -24 -2 -12 -10 22 -14 -1 -32 -36 -28 -62 7 -32 108 32 108 18 0
28 -6 31 -21 4 -16 8 -17 14 -7 5 7 9 18 9 23 0 14 -71 17 -95 3z"/>
<path d="M5293 466 c9 -14 17 -36 18 -48 0 -13 4 -31 8 -42 6 -17 9 -16 25 10
10 16 12 23 5 16 -12 -11 -16 -6 -25 35 -7 34 -16 49 -29 52 -18 3 -18 2 -2
-23z"/>
<path d="M5392 469 c-10 -16 -10 -19 -1 -13 9 5 10 1 6 -17 -4 -13 -7 -29 -7
-36 0 -6 -7 -19 -16 -27 -14 -15 -13 -16 11 -16 14 0 24 4 20 9 -8 13 16 104
29 113 7 5 3 8 -9 8 -11 0 -26 -9 -33 -21z"/>
<path d="M5281 434 c0 -11 3 -14 6 -6 3 7 2 16 -1 19 -3 4 -6 -2 -5 -13z"/>
<path d="M4528 424 c-5 -4 -8 -42 -8 -85 0 -65 -3 -78 -17 -82 -10 -3 2 -5 27
-5 25 0 37 2 28 5 -14 4 -18 19 -20 90 -2 46 -6 81 -10 77z"/>
<path d="M5270 391 c0 -11 -6 -22 -12 -24 -7 -3 -3 -6 8 -6 17 -1 20 4 16 24
-5 30 -12 33 -12 6z"/>
<path d="M4718 313 c23 -2 61 -2 85 0 23 2 4 4 -43 4 -47 0 -66 -2 -42 -4z"/>
<path d="M5072 313 c70 -2 187 -2 260 0 73 1 16 3 -127 3 -143 0 -203 -2 -133
-3z"/>
<path d="M5275 290 c-4 -6 -4 -14 -1 -17 3 -4 6 -1 6 5 0 7 6 12 14 12 28 0
28 -22 0 -51 l-28 -29 32 0 c18 0 32 4 32 9 0 5 -10 7 -22 4 l-23 -5 23 21
c13 11 22 28 20 38 -4 21 -43 30 -53 13z"/>
<path d="M5065 230 c-3 -5 1 -7 9 -4 12 5 14 -1 10 -33 -4 -35 -3 -36 7 -13 6
14 15 32 19 40 6 12 2 16 -16 18 -13 1 -26 -3 -29 -8z"/>
<path d="M5130 230 c0 -5 5 -10 10 -10 6 0 10 5 10 10 0 6 -4 10 -10 10 -5 0
-10 -4 -10 -10z"/>
<path d="M5184 219 c-22 -24 -9 -53 25 -55 19 -2 19 -1 1 3 -21 5 -26 28 -10
53 8 12 13 13 30 2 17 -10 20 -10 20 3 0 22 -44 19 -66 -6z"/>
</g>
</svg>
